<?xml version="1.0" encoding="iso-8859-1"?>
<!-- Generator: Adobe Illustrator 22.1.0, SVG Export Plug-In . SVG Version: 6.00 Build 0)  -->
<svg version="1.1" id="Layer_1" xmlns="http://www.w3.org/2000/svg" xmlns:xlink="http://www.w3.org/1999/xlink" x="0px" y="0px"
	 viewBox="0 0 48 48" style="enable-background:new 0 0 48 48;" xml:space="preserve">
<circle cx="19" cy="26" r="2"/>
<circle cx="29" cy="26" r="2"/>
<path d="M39,22.037V20.5c0-1.452-0.294-2.747-0.586-3.682c0.583-0.324,1.051-0.83,1.325-1.45c0.359-0.813,0.346-1.737-0.036-2.536
	C37.019,7.22,31.478,4,24.5,4C14.794,4,9,9.421,9,18.5v3.521C7.747,22.949,7,24.401,7,26c0,2.357,1.639,4.338,3.837,4.863
	C12.832,38.767,18.026,44,24,44s11.168-5.233,13.163-13.137C39.361,30.338,41,28.357,41,26C41,24.41,40.253,22.964,39,22.037z
	 M36.058,27.999c-0.042-0.003-0.084-0.005-0.119-0.005c-0.709,0-1.322,0.497-1.468,1.192C33.012,36.142,28.706,41,24,41
	s-9.012-4.858-10.471-11.813c-0.146-0.695-0.759-1.192-1.468-1.192c-0.034,0-0.076,0.002-0.118,0.005C10.866,27.969,10,27.084,10,26
	c0-0.765,0.437-1.447,1.143-1.781C11.666,23.971,12,23.442,12,22.863v-2.63c3.17-0.775,5.333-2.478,5.415-2.545
	c0.652-0.502,1.235-1.058,1.736-1.653c0.111-0.134,0.214-0.263,0.308-0.388c0,0,0.001-0.001,0.001-0.002
	C21.208,16.655,24.553,18,30,18c2.128,0,4.024-0.184,5.506-0.424C35.738,18.282,36,19.327,36,20.5v2.379
	c0,0.579,0.333,1.106,0.856,1.354C37.562,24.568,38,25.245,38,26C38,27.083,37.134,27.969,36.058,27.999z"/>
</svg>