<?xml version="1.0" encoding="iso-8859-1"?>
<!-- Generator: Adobe Illustrator 22.1.0, SVG Export Plug-In . SVG Version: 6.00 Build 0)  -->
<svg version="1.1" id="Layer_1" xmlns="http://www.w3.org/2000/svg" xmlns:xlink="http://www.w3.org/1999/xlink" x="0px" y="0px"
	 viewBox="0 0 48 48" style="enable-background:new 0 0 48 48;" xml:space="preserve">
<path style="fill:none;stroke:#000000;stroke-width:3;stroke-miterlimit:10;" d="M18.5,11.5V11c0-3.038,2.462-5.5,5.5-5.5
	s5.5,2.462,5.5,5.5v0.5"/>
<line style="fill:none;stroke:#000000;stroke-width:3;stroke-linecap:round;stroke-miterlimit:10;" x1="6.5" y1="11.5" x2="41.5" y2="11.5"/>
<path d="M8.493,11.5l2.664,27.53c0.274,2.833,2.628,4.97,5.475,4.97h14.736c2.847,0,5.2-2.137,5.475-4.97l2.664-27.53H8.493z
	 M21,34.5c0,0.829-0.672,1.5-1.5,1.5S18,35.329,18,34.5v-15c0-0.829,0.672-1.5,1.5-1.5s1.5,0.671,1.5,1.5V34.5z M30,34.5
	c0,0.829-0.672,1.5-1.5,1.5S27,35.329,27,34.5v-15c0-0.829,0.672-1.5,1.5-1.5s1.5,0.671,1.5,1.5V34.5z"/>
</svg>