<?xml version="1.0" encoding="iso-8859-1"?>
<!-- Generator: Adobe Illustrator 22.1.0, SVG Export Plug-In . SVG Version: 6.00 Build 0)  -->
<svg version="1.1" id="Layer_1" xmlns="http://www.w3.org/2000/svg" xmlns:xlink="http://www.w3.org/1999/xlink" x="0px" y="0px"
	 viewBox="0 0 48 48" style="enable-background:new 0 0 48 48;" xml:space="preserve">
<path d="M24,4C12.972,4,4,12.972,4,24c0,3.186,0.77,6.343,2.232,9.172l-2.139,7.657c-0.242,0.867,0.003,1.802,0.64,2.439
	c0.475,0.475,1.115,0.732,1.771,0.732c0.224,0,0.449-0.03,0.67-0.092l7.661-2.139C17.662,43.23,20.817,44,24,44
	c11.028,0,20-8.972,20-20S35.028,4,24,4z M22.5,14.5c0-0.828,0.671-1.5,1.5-1.5s1.5,0.672,1.5,1.5v12c0,0.828-0.671,1.5-1.5,1.5
	s-1.5-0.672-1.5-1.5V14.5z M24,35c-1.105,0-2-0.895-2-2c0-1.105,0.895-2,2-2s2,0.895,2,2C26,34.105,25.105,35,24,35z"/>
</svg>