<?xml version="1.0" encoding="iso-8859-1"?>
<!-- Generator: Adobe Illustrator 22.1.0, SVG Export Plug-In . SVG Version: 6.00 Build 0)  -->
<svg version="1.1" id="Layer_1" xmlns="http://www.w3.org/2000/svg" xmlns:xlink="http://www.w3.org/1999/xlink" x="0px" y="0px"
	 viewBox="0 0 48 48" style="enable-background:new 0 0 48 48;" xml:space="preserve">
<path d="M30.641,6.525C29.649,5.645,27.231,4,23,4C10.477,4,3,14.28,3,31.5v5C3,39.538,5.462,42,8.5,42h9.334
	c1.86,1.277,3.948,2,6.166,2c2.216,0,4.304-0.722,6.163-2H39.5c3.038,0,5.5-2.462,5.5-5.5v-5C45,12.512,35.954,6.938,30.641,6.525z
	 M13,25.44V22.5c0-0.828,0.672-1.5,1.5-1.5h0c0.396,0,9.38-0.046,14.403-3.89c1.645,0.418,6.076,2.125,6.095,8.35
	C34.506,34.177,29.681,41,24,41C18.315,41,13.486,34.167,13,25.44z"/>
<circle cx="19" cy="28" r="2"/>
<circle cx="29" cy="28" r="2"/>
</svg>